<svg width="1111" height="42" viewBox="0 0 1111 42" fill="none" xmlns="http://www.w3.org/2000/svg">
<path fill-rule="evenodd" clip-rule="evenodd" d="M5 26C7.76142 26 10 23.7614 10 21C10 18.2386 7.76142 16 5 16C2.23858 16 0 18.2386 0 21C0 23.7614 2.23858 26 5 26Z" fill="#363838"/>
<rect opacity="0.700126" x="587" width="20" height="2" transform="rotate(90 587 0)" fill="#363838"/>
<rect opacity="0.700126" x="308" y="22" width="20" height="2" transform="rotate(90 308 22)" fill="#363838"/>
<path opacity="0.700126" fill-rule="evenodd" clip-rule="evenodd" d="M1106 22C1108.76 22 1111 19.7614 1111 17C1111 14.2386 1108.76 12 1106 12C1103.24 12 1101 14.2386 1101 17C1101 19.7614 1103.24 22 1106 22Z" fill="#363838"/>
<line x1="2.99717" y1="22.4198" x2="1105.96" y2="17.046" stroke="black" stroke-width="1.16048"/>
</svg>
